# CatNapClub cap: CapWhite. Generated by StudentModels/make_cap.py
o CapWhite
v 0.000000 0.425297 0.559761
v 0.000000 0.534875 0.426602
v 0.015197 0.534223 0.427643
v 0.030498 0.532244 0.430726
v 0.045973 0.528867 0.435730
v 0.061625 0.523987 0.442468
v 0.077366 0.517476 0.450700
v 0.093004 0.509203 0.460151
v 0.108240 0.499053 0.470533
v 0.122675 0.486949 0.481557
v 0.135838 0.472873 0.492952
v 0.147219 0.456882 0.504472
v 0.156306 0.439122 0.515902
v 0.162631 0.419833 0.527060
v 0.165809 0.399341 0.537796
v 0.165567 0.378051 0.547989
v 0.161765 0.356433 0.557540
v 0.154396 0.334998 0.566367
v 0.143579 0.314286 0.574393
v 0.129546 0.294849 0.581545
v 0.112621 0.277234 0.587753
v 0.093200 0.261963 0.592947
v 0.071731 0.249515 0.597064
v 0.048700 0.240301 0.600047
v 0.024615 0.234637 0.601855
v 0.000000 0.232727 0.602461
v -0.024615 0.234637 0.601855
v -0.048700 0.240301 0.600047
v -0.071731 0.249515 0.597064
v -0.093200 0.261963 0.592947
v -0.112621 0.277234 0.587753
v -0.129546 0.294849 0.581545
v -0.143579 0.314286 0.574393
v -0.154396 0.334998 0.566367
v -0.161765 0.356433 0.557540
v -0.165567 0.378051 0.547989
v -0.165809 0.399341 0.537796
v -0.162631 0.419833 0.527060
v -0.156306 0.439122 0.515902
v -0.147219 0.456882 0.504472
v -0.135838 0.472873 0.492952
v -0.122675 0.486949 0.481557
v -0.108240 0.499053 0.470533
v -0.093004 0.509203 0.460151
v -0.077366 0.517476 0.450700
v -0.061625 0.523987 0.442468
v -0.045973 0.528867 0.435730
v -0.030498 0.532244 0.430726
v -0.015197 0.534223 0.427643
v 0.000000 0.519032 0.420438
v 0.014687 0.518412 0.421419
v 0.029472 0.516530 0.424321
v 0.044415 0.513323 0.429025
v 0.059517 0.508695 0.435346
v 0.074689 0.502534 0.443048
v 0.089743 0.494724 0.451862
v 0.104388 0.485168 0.461512
v 0.118245 0.473805 0.471728
v 0.130865 0.460624 0.482264
v 0.141765 0.445681 0.492906
v 0.150464 0.429100 0.503475
v 0.156522 0.411085 0.513825
v 0.159573 0.391912 0.523834
v 0.159355 0.371931 0.533396
v 0.155725 0.351557 0.542416
v 0.148667 0.331262 0.550803
v 0.138287 0.311557 0.558470
v 0.124802 0.292980 0.565328
v 0.108519 0.276075 0.571296
v 0.089819 0.261369 0.576297
v 0.069136 0.249347 0.580264
v 0.046941 0.240430 0.583139
v 0.023727 0.234941 0.584881
v 0.000000 0.233088 0.585465
v -0.023727 0.234941 0.584881
v -0.046941 0.240430 0.583139
v -0.069136 0.249347 0.580264
v -0.089819 0.261369 0.576297
v -0.108519 0.276075 0.571296
v -0.124802 0.292980 0.565328
v -0.138287 0.311557 0.558470
v -0.148667 0.331262 0.550803
v -0.155725 0.351557 0.542416
v -0.159355 0.371931 0.533396
v -0.159573 0.391912 0.523834
v -0.156522 0.411085 0.513825
v -0.150464 0.429100 0.503475
v -0.141765 0.445681 0.492906
v -0.130865 0.460624 0.482264
v -0.118245 0.473805 0.471728
v -0.104388 0.485168 0.461512
v -0.089743 0.494724 0.451862
v -0.074689 0.502534 0.443048
v -0.059517 0.508695 0.435346
v -0.044415 0.513323 0.429025
v -0.029472 0.516530 0.424321
v -0.014687 0.518412 0.421419
v 0.000000 0.534875 0.426602
v 0.015197 0.534223 0.427643
v 0.030498 0.532244 0.430726
v 0.045973 0.528867 0.435730
v 0.061625 0.523987 0.442468
v 0.077366 0.517476 0.450700
v 0.093004 0.509203 0.460151
v 0.108240 0.499053 0.470533
v 0.122675 0.486949 0.481557
v 0.135838 0.472873 0.492952
v 0.147219 0.456882 0.504472
v 0.156306 0.439122 0.515902
v 0.162631 0.419833 0.527060
v 0.165809 0.399341 0.537796
v 0.165567 0.378051 0.547989
v 0.161765 0.356433 0.557540
v 0.154396 0.334998 0.566367
v 0.143579 0.314286 0.574393
v 0.129546 0.294849 0.581545
v 0.112621 0.277234 0.587753
v 0.093200 0.261963 0.592947
v 0.071731 0.249515 0.597064
v 0.048700 0.240301 0.600047
v 0.024615 0.234637 0.601855
v 0.000000 0.232727 0.602461
v -0.024615 0.234637 0.601855
v -0.048700 0.240301 0.600047
v -0.071731 0.249515 0.597064
v -0.093200 0.261963 0.592947
v -0.112621 0.277234 0.587753
v -0.129546 0.294849 0.581545
v -0.143579 0.314286 0.574393
v -0.154396 0.334998 0.566367
v -0.161765 0.356433 0.557540
v -0.165567 0.378051 0.547989
v -0.165809 0.399341 0.537796
v -0.162631 0.419833 0.527060
v -0.156306 0.439122 0.515902
v -0.147219 0.456882 0.504472
v -0.135838 0.472873 0.492952
v -0.122675 0.486949 0.481557
v -0.108240 0.499053 0.470533
v -0.093004 0.509203 0.460151
v -0.077366 0.517476 0.450700
v -0.061625 0.523987 0.442468
v -0.045973 0.528867 0.435730
v -0.030498 0.532244 0.430726
v -0.015197 0.534223 0.427643
vn -0.000000 0.481653 0.876362
vn 0.000000 0.772163 0.635425
vn -0.019163 0.772514 0.634708
vn -0.031834 0.773221 0.633337
vn -0.033747 0.773260 0.633190
vn -0.023672 0.771055 0.636328
vn -0.002828 0.764726 0.644349
vn 0.026157 0.752389 0.658200
vn 0.060036 0.732396 0.678228
vn 0.095346 0.703557 0.704213
vn 0.128599 0.665406 0.735321
vn 0.156484 0.618523 0.770027
vn 0.176248 0.564815 0.806177
vn 0.186213 0.507476 0.841304
vn 0.186186 0.450458 0.873168
vn 0.177451 0.397544 0.900261
vn 0.162281 0.351477 0.922024
vn 0.143216 0.313550 0.938709
vn 0.122466 0.283751 0.951045
vn 0.101619 0.261223 0.959915
vn 0.081631 0.244748 0.966144
vn 0.062949 0.233091 0.970415
vn 0.045670 0.225171 0.973248
vn 0.029650 0.220135 0.975019
vn 0.014572 0.217364 0.975982
vn -0.000000 0.216482 0.976287
vn -0.014572 0.217364 0.975982
vn -0.029650 0.220135 0.975019
vn -0.045670 0.225171 0.973248
vn -0.062949 0.233091 0.970415
vn -0.081631 0.244748 0.966144
vn -0.101619 0.261223 0.959915
vn -0.122466 0.283751 0.951045
vn -0.143216 0.313550 0.938709
vn -0.162281 0.351477 0.922024
vn -0.177451 0.397544 0.900261
vn -0.186186 0.450458 0.873168
vn -0.186213 0.507476 0.841304
vn -0.176248 0.564815 0.806177
vn -0.156484 0.618523 0.770027
vn -0.128599 0.665406 0.735321
vn -0.095346 0.703557 0.704213
vn -0.060036 0.732396 0.678228
vn -0.026157 0.752389 0.658200
vn 0.002828 0.764726 0.644349
vn 0.023672 0.771055 0.636328
vn 0.033747 0.773260 0.633190
vn 0.031834 0.773221 0.633337
vn 0.019163 0.772514 0.634708
vn 0.027071 0.362964 -0.931410
vn 0.178393 0.356960 -0.916927
vn 0.311539 0.343623 -0.885927
vn 0.420089 0.326988 -0.846525
vn 0.505935 0.310123 -0.804894
vn 0.574985 0.293997 -0.763517
vn 0.633670 0.277567 -0.722093
vn 0.687247 0.258177 -0.678997
vn 0.739088 0.231948 -0.632415
vn 0.790289 0.194279 -0.581119
vn 0.839404 0.140707 -0.524978
vn 0.882556 0.068224 -0.465231
vn 0.914302 -0.023283 -0.404364
vn 0.929337 -0.130281 -0.345485
vn 0.924363 -0.246330 -0.291333
vn 0.898963 -0.364161 -0.243417
vn 0.854948 -0.477864 -0.201766
vn 0.794784 -0.583932 -0.165353
vn 0.720187 -0.680942 -0.132846
vn 0.631518 -0.768450 -0.103290
vn 0.528037 -0.845767 -0.076523
vn 0.408843 -0.911046 -0.053325
vn 0.274268 -0.961007 -0.035248
vn 0.127229 -0.991579 -0.024148
vn -0.026315 -0.999423 -0.021452
vn -0.178486 -0.983558 -0.027506
vn -0.321842 -0.945888 -0.041390
vn -0.451431 -0.890194 -0.061355
vn -0.565342 -0.820405 -0.085579
vn -0.663825 -0.739329 -0.112824
vn -0.747826 -0.648360 -0.142779
vn -0.817723 -0.548015 -0.176090
vn -0.872606 -0.439009 -0.214079
vn -0.910333 -0.323483 -0.258172
vn -0.928471 -0.205892 -0.309111
vn -0.925880 -0.092836 -0.366235
vn -0.904071 0.008497 -0.427298
vn -0.867318 0.092642 -0.489058
vn -0.821278 0.157514 -0.548354
vn -0.771039 0.204515 -0.603053
vn -0.719667 0.237396 -0.652474
vn -0.667663 0.260788 -0.697292
vn -0.613048 0.279060 -0.739120
vn -0.551702 0.295643 -0.779885
vn -0.477826 0.312624 -0.820944
vn -0.384883 0.330361 -0.861816
vn -0.267853 0.347117 -0.898757
vn -0.127285 0.359261 -0.924516
vn -0.025265 0.362975 -0.931456
vn 0.130246 0.359044 -0.924188
vn 0.271626 0.346524 -0.897853
vn 0.389109 0.329328 -0.860313
vn 0.482252 0.311130 -0.818921
vn 0.556174 0.293674 -0.777448
vn 0.617448 0.276603 -0.736376
vn 0.671857 0.257846 -0.694351
vn 0.723477 0.234027 -0.649471
vn 0.774247 0.200871 -0.600161
vn 0.823686 0.153868 -0.545771
vn 0.868835 0.089354 -0.486972
vn 0.904787 0.005913 -0.425824
vn 0.926052 -0.094533 -0.365365
vn 0.928408 -0.206777 -0.308709
vn 0.910241 -0.323848 -0.258037
vn 0.872517 -0.439212 -0.214025
vn 0.817532 -0.548330 -0.175998
vn 0.747386 -0.648906 -0.142604
vn 0.663031 -0.740078 -0.112581
vn 0.564184 -0.821229 -0.085314
vn 0.450007 -0.890931 -0.061122
vn 0.320338 -0.946406 -0.041229
vn 0.177112 -0.983808 -0.027431
vn 0.025213 -0.999452 -0.021450
vn -0.128052 -0.991472 -0.024192
vn -0.274942 -0.960812 -0.035324
vn -0.409556 -0.910718 -0.053447
vn -0.528941 -0.845182 -0.076735
vn -0.632662 -0.767461 -0.103645
vn -0.721493 -0.679451 -0.133392
vn -0.796070 -0.581966 -0.166097
vn -0.855985 -0.475627 -0.202654
vn -0.899576 -0.362042 -0.244311
vn -0.924547 -0.244817 -0.292022
vn -0.929311 -0.129791 -0.345739
vn -0.914435 -0.023970 -0.404022
vn -0.883194 0.066525 -0.464265
vn -0.840717 0.138379 -0.523495
vn -0.792237 0.191743 -0.579306
vn -0.741495 0.229535 -0.630475
vn -0.689889 0.256085 -0.677107
vn -0.636332 0.275887 -0.720395
vn -0.577470 0.292750 -0.762119
vn -0.508048 0.309294 -0.803881
vn -0.421602 0.326538 -0.845946
vn -0.312174 0.343480 -0.885759
vn -0.177875 0.356992 -0.917015
f 1//1 3//3 2//2
f 1//1 4//4 3//3
f 1//1 5//5 4//4
f 1//1 6//6 5//5
f 1//1 7//7 6//6
f 1//1 8//8 7//7
f 1//1 9//9 8//8
f 1//1 10//10 9//9
f 1//1 11//11 10//10
f 1//1 12//12 11//11
f 1//1 13//13 12//12
f 1//1 14//14 13//13
f 1//1 15//15 14//14
f 1//1 16//16 15//15
f 1//1 17//17 16//16
f 1//1 18//18 17//17
f 1//1 19//19 18//18
f 1//1 20//20 19//19
f 1//1 21//21 20//20
f 1//1 22//22 21//21
f 1//1 23//23 22//22
f 1//1 24//24 23//23
f 1//1 25//25 24//24
f 1//1 26//26 25//25
f 1//1 27//27 26//26
f 1//1 28//28 27//27
f 1//1 29//29 28//28
f 1//1 30//30 29//29
f 1//1 31//31 30//30
f 1//1 32//32 31//31
f 1//1 33//33 32//32
f 1//1 34//34 33//33
f 1//1 35//35 34//34
f 1//1 36//36 35//35
f 1//1 37//37 36//36
f 1//1 38//38 37//37
f 1//1 39//39 38//38
f 1//1 40//40 39//39
f 1//1 41//41 40//40
f 1//1 42//42 41//41
f 1//1 43//43 42//42
f 1//1 44//44 43//43
f 1//1 45//45 44//44
f 1//1 46//46 45//45
f 1//1 47//47 46//46
f 1//1 48//48 47//47
f 1//1 49//49 48//48
f 1//1 2//2 49//49
f 99//99 51//51 50//50
f 98//98 99//99 50//50
f 100//100 52//52 51//51
f 99//99 100//100 51//51
f 101//101 53//53 52//52
f 100//100 101//101 52//52
f 102//102 54//54 53//53
f 101//101 102//102 53//53
f 103//103 55//55 54//54
f 102//102 103//103 54//54
f 104//104 56//56 55//55
f 103//103 104//104 55//55
f 105//105 57//57 56//56
f 104//104 105//105 56//56
f 106//106 58//58 57//57
f 105//105 106//106 57//57
f 107//107 59//59 58//58
f 106//106 107//107 58//58
f 108//108 60//60 59//59
f 107//107 108//108 59//59
f 109//109 61//61 60//60
f 108//108 109//109 60//60
f 110//110 62//62 61//61
f 109//109 110//110 61//61
f 111//111 63//63 62//62
f 110//110 111//111 62//62
f 112//112 64//64 63//63
f 111//111 112//112 63//63
f 113//113 65//65 64//64
f 112//112 113//113 64//64
f 114//114 66//66 65//65
f 113//113 114//114 65//65
f 115//115 67//67 66//66
f 114//114 115//115 66//66
f 116//116 68//68 67//67
f 115//115 116//116 67//67
f 117//117 69//69 68//68
f 116//116 117//117 68//68
f 118//118 70//70 69//69
f 117//117 118//118 69//69
f 119//119 71//71 70//70
f 118//118 119//119 70//70
f 120//120 72//72 71//71
f 119//119 120//120 71//71
f 121//121 73//73 72//72
f 120//120 121//121 72//72
f 122//122 74//74 73//73
f 121//121 122//122 73//73
f 123//123 75//75 74//74
f 122//122 123//123 74//74
f 124//124 76//76 75//75
f 123//123 124//124 75//75
f 125//125 77//77 76//76
f 124//124 125//125 76//76
f 126//126 78//78 77//77
f 125//125 126//126 77//77
f 127//127 79//79 78//78
f 126//126 127//127 78//78
f 128//128 80//80 79//79
f 127//127 128//128 79//79
f 129//129 81//81 80//80
f 128//128 129//129 80//80
f 130//130 82//82 81//81
f 129//129 130//130 81//81
f 131//131 83//83 82//82
f 130//130 131//131 82//82
f 132//132 84//84 83//83
f 131//131 132//132 83//83
f 133//133 85//85 84//84
f 132//132 133//133 84//84
f 134//134 86//86 85//85
f 133//133 134//134 85//85
f 135//135 87//87 86//86
f 134//134 135//135 86//86
f 136//136 88//88 87//87
f 135//135 136//136 87//87
f 137//137 89//89 88//88
f 136//136 137//137 88//88
f 138//138 90//90 89//89
f 137//137 138//138 89//89
f 139//139 91//91 90//90
f 138//138 139//139 90//90
f 140//140 92//92 91//91
f 139//139 140//140 91//91
f 141//141 93//93 92//92
f 140//140 141//141 92//92
f 142//142 94//94 93//93
f 141//141 142//142 93//93
f 143//143 95//95 94//94
f 142//142 143//143 94//94
f 144//144 96//96 95//95
f 143//143 144//144 95//95
f 145//145 97//97 96//96
f 144//144 145//145 96//96
f 98//98 50//50 97//97
f 145//145 98//98 97//97
